<svg width="18" height="18" viewBox="0 0 18 18" fill="none" xmlns="http://www.w3.org/2000/svg">
<path d="M13.1479 5.60256L9.39788 1.85256C9.17813 1.63281 8.82188 1.63281 8.60288 1.85256L4.85288 5.60256C4.63237 5.82231 4.63237 6.17856 4.85288 6.39756C5.07338 6.61656 5.42813 6.61806 5.64788 6.39756L8.43788 3.60756V11.2501C8.43788 11.5606 8.68988 11.8126 9.00038 11.8126C9.31088 11.8126 9.56288 11.5606 9.56288 11.2501V3.60756L12.3529 6.39756C12.4624 6.50781 12.6064 6.56256 12.7504 6.56256C12.8944 6.56256 13.0384 6.50856 13.1479 6.39756C13.3676 6.17781 13.3676 5.82231 13.1479 5.60256Z" fill="#5B7083"/>
<path d="M14.781 16.458H3.219C2.271 16.458 1.5 15.687 1.5 14.739V10.5C1.5 10.1895 1.752 9.9375 2.0625 9.9375C2.373 9.9375 2.625 10.1895 2.625 10.5V14.739C2.625 15.0668 2.89125 15.333 3.219 15.333H14.781C15.1088 15.333 15.375 15.0668 15.375 14.739V10.5C15.375 10.1895 15.627 9.9375 15.9375 9.9375C16.248 9.9375 16.5 10.1895 16.5 10.5V14.739C16.5 15.687 15.729 16.458 14.781 16.458Z" fill="#5B7083"/>
</svg>
